<?xml version="1.0" encoding="UTF-8" ?>
<!DOCTYPE svg PUBLIC "-//W3C//DTD SVG 1.1//EN" "http://www.w3.org/Graphics/SVG/1.1/DTD/svg11.dtd">
<svg width="300pt" height="300pt" viewBox="0 0 300 300" version="1.1" xmlns="http://www.w3.org/2000/svg">
<g id="#009fe2ff">
<path fill="#009fe2" opacity="1.00" d=" M 88.28 16.26 C 112.44 5.06 139.73 0.91 166.16 3.95 C 194.71 7.17 222.21 19.13 244.02 37.85 C 269.31 59.18 286.90 89.37 293.14 121.86 C 293.95 126.47 294.37 131.14 295.17 135.76 C 295.75 144.85 295.76 154.00 295.15 163.09 C 294.35 167.75 293.84 172.45 293.14 177.12 C 292.43 178.65 292.38 180.37 292.14 182.02 C 291.31 184.35 290.72 186.77 290.18 189.19 C 288.46 194.95 286.48 200.62 284.22 206.19 C 269.55 240.98 240.99 269.57 206.18 284.22 C 200.61 286.45 194.95 288.48 189.19 290.17 C 180.67 292.67 171.87 293.92 163.10 295.15 C 149.32 296.11 135.44 295.73 121.85 293.14 C 120.26 292.59 118.58 292.40 116.93 292.19 C 114.29 291.33 111.58 290.70 108.86 290.17 C 105.89 289.06 102.88 288.09 99.84 287.19 C 71.45 276.88 46.31 257.74 29.17 232.84 C 13.83 210.89 4.73 184.63 3.24 157.90 C 1.68 131.86 7.15 105.41 19.19 82.26 C 34.01 53.38 58.75 29.73 88.28 16.26 M 127.12 39.09 C 117.62 40.66 109.36 47.86 106.43 57.02 C 104.82 61.49 104.98 66.32 105.00 71.00 C 105.02 97.35 104.98 123.69 105.01 150.03 C 105.01 159.24 107.79 168.45 113.06 176.01 C 120.61 187.16 133.51 194.51 146.99 195.12 C 158.06 195.74 169.31 191.93 177.66 184.61 C 187.68 176.14 193.63 163.10 193.50 149.98 C 193.50 121.99 193.50 93.99 193.50 65.99 C 193.71 56.85 188.85 47.77 181.12 42.88 C 175.83 39.33 169.32 38.38 163.07 38.66 C 151.09 38.93 139.06 38.16 127.12 39.09 M 76.10 142.99 C 73.86 145.43 74.43 148.98 74.54 152.00 C 75.57 170.13 83.46 187.82 96.44 200.54 C 108.60 212.88 125.24 220.49 142.45 222.13 C 142.43 230.13 142.45 238.13 142.43 246.13 C 132.30 246.14 122.16 246.16 112.03 246.12 C 110.07 246.15 107.92 246.03 106.25 247.25 C 102.39 249.42 102.00 255.71 105.64 258.26 C 107.09 259.56 109.07 259.77 110.93 259.73 C 136.64 259.69 162.34 259.74 188.04 259.70 C 191.83 260.11 195.32 256.74 195.29 252.99 C 195.32 249.23 191.80 245.91 188.04 246.17 C 177.39 246.09 166.74 246.18 156.09 246.13 C 156.08 238.12 156.09 230.11 156.09 222.10 C 178.43 220.15 199.49 207.54 211.73 188.77 C 219.90 176.47 224.22 161.72 224.11 146.99 C 223.70 143.55 220.60 140.49 217.05 140.63 C 213.31 140.71 210.25 144.28 210.46 147.96 C 210.35 162.14 205.32 176.30 196.05 187.09 C 184.62 200.77 166.88 209.08 149.01 208.65 C 135.71 208.87 122.45 204.23 111.92 196.15 C 98.98 186.39 90.39 171.15 88.50 155.07 C 87.89 150.85 89.32 145.51 85.62 142.38 C 83.02 139.78 78.37 140.12 76.10 142.99 Z" />
<path fill="#009fe2" opacity="1.00" d=" M 129.34 52.49 C 142.17 52.23 155.03 52.41 167.87 52.40 C 174.79 52.49 180.25 59.20 179.89 65.93 C 179.90 94.30 179.96 122.68 179.86 151.06 C 179.77 163.77 171.18 176.03 159.02 179.99 C 150.49 182.96 140.67 181.79 133.07 176.93 C 123.98 171.30 118.49 160.67 118.56 150.06 C 118.56 122.04 118.56 94.02 118.56 66.00 C 118.24 59.70 122.99 53.36 129.34 52.49 Z" />
</g>
<g id="#ffffffff">
<path fill="#ffffff" opacity="1.00" d=" M 127.12 39.09 C 139.06 38.16 151.09 38.93 163.07 38.66 C 169.32 38.38 175.83 39.33 181.12 42.88 C 188.85 47.77 193.71 56.85 193.50 65.99 C 193.50 93.99 193.50 121.99 193.50 149.98 C 193.63 163.10 187.68 176.14 177.66 184.61 C 169.31 191.93 158.06 195.74 146.99 195.12 C 133.51 194.51 120.61 187.16 113.06 176.01 C 107.79 168.45 105.01 159.24 105.01 150.03 C 104.98 123.69 105.02 97.35 105.00 71.00 C 104.98 66.32 104.82 61.49 106.43 57.02 C 109.36 47.86 117.62 40.66 127.12 39.09 M 129.34 52.49 C 122.99 53.36 118.24 59.70 118.56 66.00 C 118.56 94.02 118.56 122.04 118.56 150.06 C 118.49 160.67 123.98 171.30 133.07 176.93 C 140.67 181.79 150.49 182.96 159.02 179.99 C 171.18 176.03 179.77 163.77 179.86 151.06 C 179.96 122.68 179.90 94.30 179.89 65.93 C 180.25 59.20 174.79 52.49 167.87 52.40 C 155.03 52.41 142.17 52.23 129.34 52.49 Z" />
<path fill="#ffffff" opacity="1.00" d=" M 76.10 142.99 C 78.37 140.12 83.02 139.78 85.62 142.38 C 89.32 145.51 87.89 150.85 88.50 155.07 C 90.39 171.15 98.98 186.39 111.92 196.15 C 122.45 204.23 135.71 208.87 149.01 208.65 C 166.88 209.08 184.62 200.77 196.05 187.09 C 205.32 176.30 210.35 162.14 210.46 147.96 C 210.25 144.28 213.31 140.71 217.05 140.63 C 220.60 140.49 223.70 143.55 224.11 146.99 C 224.22 161.72 219.90 176.47 211.73 188.77 C 199.49 207.54 178.43 220.15 156.09 222.10 C 156.09 230.11 156.08 238.12 156.09 246.13 C 166.74 246.18 177.39 246.09 188.04 246.17 C 191.80 245.91 195.32 249.23 195.29 252.99 C 195.32 256.74 191.83 260.11 188.04 259.70 C 162.34 259.74 136.64 259.69 110.93 259.73 C 109.07 259.77 107.09 259.56 105.64 258.26 C 102.00 255.71 102.39 249.42 106.25 247.25 C 107.92 246.03 110.07 246.15 112.03 246.12 C 122.16 246.16 132.30 246.14 142.43 246.13 C 142.45 238.13 142.43 230.13 142.45 222.13 C 125.24 220.49 108.60 212.88 96.44 200.54 C 83.46 187.82 75.57 170.13 74.54 152.00 C 74.43 148.98 73.86 145.43 76.10 142.99 Z" />
</g>
</svg>
