<?xml version="1.0" encoding="UTF-8" ?>
<!DOCTYPE svg PUBLIC "-//W3C//DTD SVG 1.1//EN" "http://www.w3.org/Graphics/SVG/1.1/DTD/svg11.dtd">
<svg width="536pt" height="536pt" viewBox="0 0 536 536" version="1.1" xmlns="http://www.w3.org/2000/svg">
<g id="#ffffffff">
<path fill="#ffffff" opacity="1.00" d=" M 0.00 0.00 L 536.00 0.00 L 536.00 267.77 C 357.32 191.27 178.72 114.55 0.00 38.14 L 0.00 0.00 Z" />
<path fill="#ffffff" opacity="1.00" d=" M 0.00 217.96 C 23.71 220.85 47.37 224.24 71.06 227.31 C 165.70 239.94 260.34 252.55 354.98 265.18 C 364.02 266.27 373.00 267.85 382.09 268.46 C 380.05 268.76 377.99 268.86 375.94 269.05 C 250.62 285.67 125.33 302.55 0.01 319.09 L 0.00 320.06 L 0.00 217.96 Z" />
<path fill="#ffffff" opacity="1.00" d=" M 534.02 270.09 C 534.51 269.76 535.50 269.12 536.00 268.79 L 536.00 536.00 L 0.00 536.00 L 0.00 499.00 C 177.96 422.59 356.01 346.38 534.02 270.09 Z" />
</g>
<g id="#2b6effff">
<path fill="#2b6eff" opacity="1.00" d=" M 0.00 38.14 C 178.72 114.55 357.32 191.27 536.00 267.77 L 536.00 268.79 C 535.50 269.12 534.51 269.76 534.02 270.09 C 356.01 346.38 177.96 422.59 0.00 499.00 L 0.00 320.06 L 0.01 319.09 C 125.33 302.55 250.62 285.67 375.94 269.05 C 377.99 268.86 380.05 268.76 382.09 268.46 C 373.00 267.85 364.02 266.27 354.98 265.18 C 260.34 252.55 165.70 239.94 71.06 227.31 C 47.37 224.24 23.71 220.85 0.00 217.96 L 0.00 38.14 Z" />
</g>
</svg>
